<svg xmlns="http://www.w3.org/2000/svg" xmlns:xlink="http://www.w3.org/1999/xlink" width="2000" zoomAndPan="magnify" viewBox="0 0 1500 1499.999933" height="2000" preserveAspectRatio="xMidYMid meet" version="1.0"><defs><g/><clipPath id="7df6e4d59a"><rect x="0" width="690" y="0" height="886"/></clipPath><clipPath id="f5a81d6dab"><rect x="0" width="614" y="0" height="886"/></clipPath></defs><g transform="matrix(1, 0, 0, 1, 630, 426)"><g clip-path="url(#7df6e4d59a)"><g fill="#2f5d50" fill-opacity="1"><g transform="translate(3.873519, 658.668131)"><g><path d="M 173.578125 0 L 26.265625 0 C 18.765625 0 13.757812 -2.5 11.25 -7.5 C 8.75 -12.507812 8.753906 -18.140625 11.265625 -24.390625 L 283.34375 -632.375 C 286.476562 -639.257812 291.015625 -645.046875 296.953125 -649.734375 C 302.898438 -654.429688 309 -656.78125 315.25 -656.78125 L 372.484375 -656.78125 C 380.617188 -656.78125 387.65625 -654.429688 393.59375 -649.734375 C 399.539062 -645.046875 403.765625 -639.257812 406.265625 -632.375 L 678.359375 -24.390625 C 680.859375 -18.140625 680.859375 -12.507812 678.359375 -7.5 C 675.859375 -2.5 670.851562 0 663.34375 0 L 526.359375 0 C 518.222656 0 511.335938 -2.34375 505.703125 -7.03125 C 500.078125 -11.726562 495.703125 -17.515625 492.578125 -24.390625 L 423.15625 -179.203125 L 124.78125 -179.203125 L 194.21875 -24.390625 C 197.34375 -17.515625 197.1875 -11.726562 193.75 -7.03125 C 190.3125 -2.34375 183.585938 0 173.578125 0 Z M 417.515625 -192.34375 L 258.953125 -547.9375 L 109.78125 -212.984375 L 119.15625 -192.34375 Z M 417.515625 -192.34375 "/></g></g></g></g></g><g transform="matrix(1, 0, 0, 1, 208, 426)"><g clip-path="url(#f5a81d6dab)"><g fill="#2f5d50" fill-opacity="1"><g transform="translate(2.227063, 658.668131)"><g><path d="M 603.296875 -632.375 L 603.296875 -455.984375 C 603.296875 -444.722656 598.914062 -439.09375 590.15625 -439.09375 L 584.53125 -439.09375 C 580.15625 -439.09375 575.929688 -441.59375 571.859375 -446.59375 C 567.796875 -451.601562 563.265625 -457.238281 558.265625 -463.5 L 421.28125 -643.640625 L 391.25 -643.640625 L 391.25 -24.390625 C 391.25 -8.128906 384.367188 0 370.609375 0 L 251.453125 0 C 237.691406 0 230.8125 -8.128906 230.8125 -24.390625 L 230.8125 -643.640625 L 200.78125 -643.640625 L 63.796875 -463.5 C 59.421875 -457.238281 55.039062 -451.601562 50.65625 -446.59375 C 46.28125 -441.59375 41.90625 -439.09375 37.53125 -439.09375 L 31.90625 -439.09375 C 23.144531 -439.09375 18.765625 -444.722656 18.765625 -455.984375 L 18.765625 -632.375 C 18.765625 -648.644531 25.644531 -656.78125 39.40625 -656.78125 L 582.65625 -656.78125 C 596.414062 -656.78125 603.296875 -648.644531 603.296875 -632.375 Z M 603.296875 -632.375 "/></g></g></g></g></g></svg>