<svg xmlns="http://www.w3.org/2000/svg" xmlns:xlink="http://www.w3.org/1999/xlink" width="2000" zoomAndPan="magnify" viewBox="0 0 1500 1499.999933" height="2000" preserveAspectRatio="xMidYMid meet" version="1.0"><defs><g/><clipPath id="d4f2fdb3ed"><rect x="0" width="481" y="0" height="617"/></clipPath><clipPath id="ff4fe87ff7"><rect x="0" width="427" y="0" height="617"/></clipPath><clipPath id="effa0f8caf"><rect x="0" width="960" y="0" height="112"/></clipPath></defs><rect x="-150" width="1800" fill="#ffffff" y="-149.999993" height="1799.99992" fill-opacity="1"/><rect x="-150" width="1800" fill="#f1efe7" y="-149.999993" height="1799.99992" fill-opacity="1"/><g transform="matrix(1, 0, 0, 1, 666, 425)"><g clip-path="url(#d4f2fdb3ed)"><g fill="#292929" fill-opacity="1"><g transform="translate(3.24849, 458.633054)"><g><path d="M 120.703125 0 L 18.265625 0 C 13.046875 0 9.566406 -1.738281 7.828125 -5.21875 C 6.085938 -8.695312 6.085938 -12.613281 7.828125 -16.96875 L 197.03125 -439.75 C 199.207031 -444.53125 202.359375 -448.550781 206.484375 -451.8125 C 210.617188 -455.070312 214.863281 -456.703125 219.21875 -456.703125 L 259.015625 -456.703125 C 264.671875 -456.703125 269.5625 -455.070312 273.6875 -451.8125 C 277.820312 -448.550781 280.757812 -444.53125 282.5 -439.75 L 471.71875 -16.96875 C 473.457031 -12.613281 473.457031 -8.695312 471.71875 -5.21875 C 469.976562 -1.738281 466.492188 0 461.265625 0 L 366.015625 0 C 360.359375 0 355.570312 -1.628906 351.65625 -4.890625 C 347.75 -8.148438 344.707031 -12.175781 342.53125 -16.96875 L 294.25 -124.609375 L 86.78125 -124.609375 L 135.046875 -16.96875 C 137.222656 -12.175781 137.113281 -8.148438 134.71875 -4.890625 C 132.332031 -1.628906 127.660156 0 120.703125 0 Z M 290.328125 -133.75 L 180.078125 -381.03125 L 76.328125 -148.109375 L 82.859375 -133.75 Z M 290.328125 -133.75 "/></g></g></g></g></g><g transform="matrix(1, 0, 0, 1, 373, 425)"><g clip-path="url(#ff4fe87ff7)"><g fill="#292929" fill-opacity="1"><g transform="translate(1.654976, 458.633054)"><g><path d="M 419.515625 -439.75 L 419.515625 -317.078125 C 419.515625 -309.253906 416.472656 -305.34375 410.390625 -305.34375 L 406.46875 -305.34375 C 403.425781 -305.34375 400.488281 -307.082031 397.65625 -310.5625 C 394.832031 -314.039062 391.679688 -317.953125 388.203125 -322.296875 L 292.9375 -447.578125 L 272.0625 -447.578125 L 272.0625 -16.96875 C 272.0625 -5.65625 267.28125 0 257.71875 0 L 174.859375 0 C 165.285156 0 160.5 -5.65625 160.5 -16.96875 L 160.5 -447.578125 L 139.625 -447.578125 L 44.359375 -322.296875 C 41.316406 -317.953125 38.273438 -314.039062 35.234375 -310.5625 C 32.191406 -307.082031 29.144531 -305.34375 26.09375 -305.34375 L 22.1875 -305.34375 C 16.09375 -305.34375 13.046875 -309.253906 13.046875 -317.078125 L 13.046875 -439.75 C 13.046875 -451.050781 17.832031 -456.703125 27.40625 -456.703125 L 405.15625 -456.703125 C 414.726562 -456.703125 419.515625 -451.050781 419.515625 -439.75 Z M 419.515625 -439.75 "/></g></g></g></g></g><g transform="matrix(1, 0, 0, 1, 276, 932)"><g clip-path="url(#effa0f8caf)"><g fill="#292929" fill-opacity="1"><g transform="translate(3.755, 86.35218)"><g><path d="M 47.734375 -61.890625 C 48.503906 -61.890625 49.140625 -61.648438 49.640625 -61.171875 C 50.140625 -60.703125 50.390625 -60.085938 50.390625 -59.328125 C 50.390625 -58.554688 50.140625 -57.945312 49.640625 -57.5 C 49.140625 -57.0625 48.503906 -56.84375 47.734375 -56.84375 L 29.4375 -56.84375 L 29.4375 -2.65625 C 29.4375 -1.882812 29.171875 -1.25 28.640625 -0.75 C 28.109375 -0.25 27.460938 0 26.703125 0 C 25.878906 0 25.210938 -0.25 24.703125 -0.75 C 24.203125 -1.25 23.953125 -1.882812 23.953125 -2.65625 L 23.953125 -56.84375 L 5.65625 -56.84375 C 4.894531 -56.84375 4.257812 -57.078125 3.75 -57.546875 C 3.25 -58.023438 3 -58.644531 3 -59.40625 C 3 -60.113281 3.25 -60.703125 3.75 -61.171875 C 4.257812 -61.648438 4.894531 -61.890625 5.65625 -61.890625 Z M 47.734375 -61.890625 "/></g></g></g><g fill="#292929" fill-opacity="1"><g transform="translate(69.439931, 86.35218)"><g><path d="M 52.609375 -61.890625 C 53.429688 -61.890625 54.09375 -61.632812 54.59375 -61.125 C 55.09375 -60.625 55.34375 -59.960938 55.34375 -59.140625 L 55.34375 -2.734375 C 55.28125 -1.910156 54.984375 -1.25 54.453125 -0.75 C 53.921875 -0.25 53.273438 0 52.515625 0 C 51.742188 0 51.09375 -0.265625 50.5625 -0.796875 C 50.03125 -1.328125 49.765625 -1.972656 49.765625 -2.734375 L 49.765625 -29.078125 L 13.875 -29.078125 L 13.875 -2.734375 C 13.820312 -1.972656 13.53125 -1.328125 13 -0.796875 C 12.46875 -0.265625 11.816406 0 11.046875 0 C 10.222656 0 9.5625 -0.25 9.0625 -0.75 C 8.5625 -1.25 8.3125 -1.910156 8.3125 -2.734375 L 8.3125 -59.140625 C 8.3125 -59.960938 8.578125 -60.625 9.109375 -61.125 C 9.640625 -61.632812 10.316406 -61.890625 11.140625 -61.890625 C 11.898438 -61.890625 12.546875 -61.625 13.078125 -61.09375 C 13.609375 -60.5625 13.875 -59.910156 13.875 -59.140625 L 13.875 -34.21875 L 49.765625 -34.21875 L 49.765625 -59.140625 C 49.765625 -59.910156 50.046875 -60.5625 50.609375 -61.09375 C 51.171875 -61.625 51.835938 -61.890625 52.609375 -61.890625 Z M 52.609375 -61.890625 "/></g></g></g><g fill="#292929" fill-opacity="1"><g transform="translate(145.379622, 86.35218)"><g><path d="M 63.46875 -30.9375 C 63.46875 -24.875 62.203125 -19.425781 59.671875 -14.59375 C 57.140625 -9.757812 53.632812 -5.96875 49.15625 -3.21875 C 44.675781 -0.476562 39.578125 0.890625 33.859375 0.890625 C 28.140625 0.890625 23.039062 -0.476562 18.5625 -3.21875 C 14.082031 -5.96875 10.578125 -9.757812 8.046875 -14.59375 C 5.515625 -19.425781 4.25 -24.875 4.25 -30.9375 C 4.25 -37.070312 5.515625 -42.554688 8.046875 -47.390625 C 10.578125 -52.222656 14.082031 -55.992188 18.5625 -58.703125 C 23.039062 -61.410156 28.140625 -62.765625 33.859375 -62.765625 C 39.578125 -62.765625 44.675781 -61.410156 49.15625 -58.703125 C 53.632812 -55.992188 57.140625 -52.222656 59.671875 -47.390625 C 62.203125 -42.554688 63.46875 -37.070312 63.46875 -30.9375 Z M 57.8125 -30.9375 C 57.8125 -36.070312 56.796875 -40.65625 54.765625 -44.6875 C 52.734375 -48.726562 49.90625 -51.867188 46.28125 -54.109375 C 42.65625 -56.347656 38.515625 -57.46875 33.859375 -57.46875 C 29.203125 -57.46875 25.0625 -56.347656 21.4375 -54.109375 C 17.8125 -51.867188 14.984375 -48.726562 12.953125 -44.6875 C 10.921875 -40.65625 9.90625 -36.070312 9.90625 -30.9375 C 9.90625 -25.8125 10.921875 -21.226562 12.953125 -17.1875 C 14.984375 -13.15625 17.8125 -10.019531 21.4375 -7.78125 C 25.0625 -5.539062 29.203125 -4.421875 33.859375 -4.421875 C 38.515625 -4.421875 42.65625 -5.539062 46.28125 -7.78125 C 49.90625 -10.019531 52.734375 -13.15625 54.765625 -17.1875 C 56.796875 -21.226562 57.8125 -25.8125 57.8125 -30.9375 Z M 57.8125 -30.9375 "/></g></g></g><g fill="#292929" fill-opacity="1"><g transform="translate(225.385809, 86.35218)"><g><path d="M 42.53125 -5.21875 C 43.289062 -5.21875 43.921875 -4.976562 44.421875 -4.5 C 44.921875 -4.03125 45.171875 -3.414062 45.171875 -2.65625 C 45.171875 -1.882812 44.921875 -1.25 44.421875 -0.75 C 43.921875 -0.25 43.289062 0 42.53125 0 L 10.96875 0 C 10.195312 0 9.5625 -0.25 9.0625 -0.75 C 8.5625 -1.25 8.3125 -1.882812 8.3125 -2.65625 L 8.3125 -59.234375 C 8.3125 -59.992188 8.578125 -60.625 9.109375 -61.125 C 9.640625 -61.632812 10.316406 -61.890625 11.140625 -61.890625 C 11.898438 -61.890625 12.546875 -61.632812 13.078125 -61.125 C 13.609375 -60.625 13.875 -59.992188 13.875 -59.234375 L 13.875 -5.21875 Z M 42.53125 -5.21875 "/></g></g></g><g fill="#292929" fill-opacity="1"><g transform="translate(284.705725, 86.35218)"><g><path d="M 43.40625 -5.21875 C 44.175781 -5.21875 44.8125 -4.953125 45.3125 -4.421875 C 45.8125 -3.890625 46.0625 -3.269531 46.0625 -2.5625 C 46.0625 -1.800781 45.8125 -1.179688 45.3125 -0.703125 C 44.8125 -0.234375 44.175781 0 43.40625 0 L 10.96875 0 C 10.195312 0 9.5625 -0.25 9.0625 -0.75 C 8.5625 -1.25 8.3125 -1.882812 8.3125 -2.65625 L 8.3125 -59.234375 C 8.3125 -59.992188 8.5625 -60.625 9.0625 -61.125 C 9.5625 -61.632812 10.195312 -61.890625 10.96875 -61.890625 L 43.40625 -61.890625 C 44.175781 -61.890625 44.8125 -61.632812 45.3125 -61.125 C 45.8125 -60.625 46.0625 -59.992188 46.0625 -59.234375 C 46.0625 -58.460938 45.8125 -57.84375 45.3125 -57.375 C 44.8125 -56.90625 44.175781 -56.671875 43.40625 -56.671875 L 13.875 -56.671875 L 13.875 -34.484375 L 39.421875 -34.484375 C 40.191406 -34.484375 40.828125 -34.226562 41.328125 -33.71875 C 41.828125 -33.21875 42.078125 -32.585938 42.078125 -31.828125 C 42.078125 -31.054688 41.828125 -30.4375 41.328125 -29.96875 C 40.828125 -29.5 40.191406 -29.265625 39.421875 -29.265625 L 13.875 -29.265625 L 13.875 -5.21875 Z M 43.40625 -5.21875 "/></g></g></g><g fill="#292929" fill-opacity="1"><g transform="translate(347.20815, 86.35218)"><g><path d="M 62.234375 -61.890625 C 62.941406 -61.890625 63.546875 -61.632812 64.046875 -61.125 C 64.546875 -60.625 64.796875 -59.992188 64.796875 -59.234375 L 64.796875 -2.65625 C 64.796875 -1.882812 64.53125 -1.25 64 -0.75 C 63.46875 -0.25 62.820312 0 62.0625 0 C 61.238281 0 60.5625 -0.25 60.03125 -0.75 C 59.5 -1.25 59.234375 -1.882812 59.234375 -2.65625 L 59.234375 -51.28125 L 38.453125 -19.796875 C 37.867188 -19.035156 37.191406 -18.679688 36.421875 -18.734375 L 36.25 -18.734375 C 35.539062 -18.734375 34.890625 -19.085938 34.296875 -19.796875 L 13.53125 -51.453125 L 13.53125 -2.65625 C 13.53125 -1.882812 13.273438 -1.25 12.765625 -0.75 C 12.265625 -0.25 11.632812 0 10.875 0 C 10.101562 0 9.484375 -0.25 9.015625 -0.75 C 8.546875 -1.25 8.3125 -1.882812 8.3125 -2.65625 L 8.3125 -59.234375 C 8.3125 -59.941406 8.5625 -60.5625 9.0625 -61.09375 C 9.5625 -61.625 10.195312 -61.890625 10.96875 -61.890625 C 11.375 -61.890625 11.8125 -61.785156 12.28125 -61.578125 C 12.757812 -61.367188 13.113281 -61.085938 13.34375 -60.734375 L 36.515625 -25.984375 L 59.84375 -60.734375 C 60.5 -61.617188 61.296875 -62.003906 62.234375 -61.890625 Z M 62.234375 -61.890625 "/></g></g></g><g fill="#292929" fill-opacity="1"><g transform="translate(432.606903, 86.35218)"><g><path d="M 54.453125 -3.53125 C 54.578125 -3.0625 54.640625 -2.707031 54.640625 -2.46875 C 54.640625 -1.707031 54.375 -1.085938 53.84375 -0.609375 C 53.3125 -0.140625 52.691406 0.09375 51.984375 0.09375 C 51.390625 0.09375 50.867188 -0.0664062 50.421875 -0.390625 C 49.984375 -0.722656 49.648438 -1.15625 49.421875 -1.6875 L 42.78125 -17.859375 L 14.0625 -17.859375 L 7.515625 -1.6875 C 7.046875 -0.5 6.25 0.09375 5.125 0.09375 C 4.300781 0.09375 3.679688 -0.113281 3.265625 -0.53125 C 2.859375 -0.945312 2.625 -1.503906 2.5625 -2.203125 L 2.5625 -2.46875 C 2.5625 -2.820312 2.59375 -3.085938 2.65625 -3.265625 L 25.984375 -60.375 C 26.460938 -61.5625 27.347656 -62.15625 28.640625 -62.15625 C 29.234375 -62.15625 29.75 -61.988281 30.1875 -61.65625 C 30.632812 -61.332031 30.972656 -60.90625 31.203125 -60.375 Z M 16.09375 -23.078125 L 40.671875 -23.078125 L 28.296875 -53.3125 Z M 16.09375 -23.078125 "/></g></g></g><g fill="#292929" fill-opacity="1"><g transform="translate(502.093173, 86.35218)"><g/></g></g><g fill="#292929" fill-opacity="1"><g transform="translate(538.516758, 86.35218)"><g><path d="M 54.453125 -3.53125 C 54.578125 -3.0625 54.640625 -2.707031 54.640625 -2.46875 C 54.640625 -1.707031 54.375 -1.085938 53.84375 -0.609375 C 53.3125 -0.140625 52.691406 0.09375 51.984375 0.09375 C 51.390625 0.09375 50.867188 -0.0664062 50.421875 -0.390625 C 49.984375 -0.722656 49.648438 -1.15625 49.421875 -1.6875 L 42.78125 -17.859375 L 14.0625 -17.859375 L 7.515625 -1.6875 C 7.046875 -0.5 6.25 0.09375 5.125 0.09375 C 4.300781 0.09375 3.679688 -0.113281 3.265625 -0.53125 C 2.859375 -0.945312 2.625 -1.503906 2.5625 -2.203125 L 2.5625 -2.46875 C 2.5625 -2.820312 2.59375 -3.085938 2.65625 -3.265625 L 25.984375 -60.375 C 26.460938 -61.5625 27.347656 -62.15625 28.640625 -62.15625 C 29.234375 -62.15625 29.75 -61.988281 30.1875 -61.65625 C 30.632812 -61.332031 30.972656 -60.90625 31.203125 -60.375 Z M 16.09375 -23.078125 L 40.671875 -23.078125 L 28.296875 -53.3125 Z M 16.09375 -23.078125 "/></g></g></g><g fill="#292929" fill-opacity="1"><g transform="translate(608.003029, 86.35218)"><g><path d="M 53.578125 -61.890625 C 54.335938 -61.890625 54.9375 -61.648438 55.375 -61.171875 C 55.820312 -60.703125 56.046875 -60.113281 56.046875 -59.40625 L 56.046875 -2.828125 C 56.046875 -1.941406 55.78125 -1.25 55.25 -0.75 C 54.71875 -0.25 54.070312 0 53.3125 0 C 52.894531 0 52.492188 -0.0859375 52.109375 -0.265625 C 51.734375 -0.441406 51.425781 -0.648438 51.1875 -0.890625 L 13.265625 -51.984375 L 13.265625 -2.390625 C 13.265625 -1.742188 13.015625 -1.179688 12.515625 -0.703125 C 12.015625 -0.234375 11.4375 0 10.78125 0 C 10.070312 0 9.484375 -0.234375 9.015625 -0.703125 C 8.546875 -1.179688 8.3125 -1.742188 8.3125 -2.390625 L 8.3125 -59.234375 C 8.3125 -60.054688 8.5625 -60.703125 9.0625 -61.171875 C 9.5625 -61.648438 10.164062 -61.890625 10.875 -61.890625 C 11.8125 -61.890625 12.519531 -61.5625 13 -60.90625 L 51.09375 -9.546875 L 51.09375 -59.40625 C 51.09375 -60.113281 51.328125 -60.703125 51.796875 -61.171875 C 52.273438 -61.648438 52.867188 -61.890625 53.578125 -61.890625 Z M 53.578125 -61.890625 "/></g></g></g><g fill="#292929" fill-opacity="1"><g transform="translate(684.649899, 86.35218)"><g><path d="M 33.5 -61.890625 C 39.164062 -61.890625 43.925781 -60.488281 47.78125 -57.6875 C 51.644531 -54.882812 54.535156 -51.140625 56.453125 -46.453125 C 58.367188 -41.765625 59.328125 -36.59375 59.328125 -30.9375 C 59.328125 -25.101562 58.367188 -19.859375 56.453125 -15.203125 C 54.535156 -10.546875 51.644531 -6.847656 47.78125 -4.109375 C 43.925781 -1.367188 39.164062 0 33.5 0 L 10.96875 0 C 10.195312 0 9.5625 -0.25 9.0625 -0.75 C 8.5625 -1.25 8.3125 -1.882812 8.3125 -2.65625 L 8.3125 -59.234375 C 8.3125 -59.992188 8.5625 -60.625 9.0625 -61.125 C 9.5625 -61.632812 10.195312 -61.890625 10.96875 -61.890625 Z M 32.625 -5.21875 C 39.695312 -5.21875 44.96875 -7.585938 48.4375 -12.328125 C 51.914062 -17.078125 53.65625 -23.28125 53.65625 -30.9375 C 53.65625 -35.71875 52.921875 -40.035156 51.453125 -43.890625 C 49.984375 -47.753906 47.671875 -50.847656 44.515625 -53.171875 C 41.359375 -55.503906 37.394531 -56.671875 32.625 -56.671875 L 13.875 -56.671875 L 13.875 -5.21875 Z M 32.625 -5.21875 "/></g></g></g><g fill="#292929" fill-opacity="1"><g transform="translate(760.501183, 86.35218)"><g><path d="M 43.40625 -5.21875 C 44.175781 -5.21875 44.8125 -4.953125 45.3125 -4.421875 C 45.8125 -3.890625 46.0625 -3.269531 46.0625 -2.5625 C 46.0625 -1.800781 45.8125 -1.179688 45.3125 -0.703125 C 44.8125 -0.234375 44.175781 0 43.40625 0 L 10.96875 0 C 10.195312 0 9.5625 -0.25 9.0625 -0.75 C 8.5625 -1.25 8.3125 -1.882812 8.3125 -2.65625 L 8.3125 -59.234375 C 8.3125 -59.992188 8.5625 -60.625 9.0625 -61.125 C 9.5625 -61.632812 10.195312 -61.890625 10.96875 -61.890625 L 43.40625 -61.890625 C 44.175781 -61.890625 44.8125 -61.632812 45.3125 -61.125 C 45.8125 -60.625 46.0625 -59.992188 46.0625 -59.234375 C 46.0625 -58.460938 45.8125 -57.84375 45.3125 -57.375 C 44.8125 -56.90625 44.175781 -56.671875 43.40625 -56.671875 L 13.875 -56.671875 L 13.875 -34.484375 L 39.421875 -34.484375 C 40.191406 -34.484375 40.828125 -34.226562 41.328125 -33.71875 C 41.828125 -33.21875 42.078125 -32.585938 42.078125 -31.828125 C 42.078125 -31.054688 41.828125 -30.4375 41.328125 -29.96875 C 40.828125 -29.5 40.191406 -29.265625 39.421875 -29.265625 L 13.875 -29.265625 L 13.875 -5.21875 Z M 43.40625 -5.21875 "/></g></g></g><g fill="#292929" fill-opacity="1"><g transform="translate(823.003607, 86.35218)"><g><path d="M 53.484375 -4.78125 C 54.367188 -4.1875 54.8125 -3.445312 54.8125 -2.5625 C 54.8125 -2.269531 54.691406 -1.890625 54.453125 -1.421875 C 54.222656 -1.003906 53.898438 -0.675781 53.484375 -0.4375 C 53.066406 -0.207031 52.625 -0.09375 52.15625 -0.09375 C 51.570312 -0.09375 51.070312 -0.207031 50.65625 -0.4375 C 49.007812 -1.382812 47.679688 -2.914062 46.671875 -5.03125 C 45.671875 -7.15625 45.171875 -10.546875 45.171875 -15.203125 C 45.171875 -19.328125 44.019531 -22.226562 41.71875 -23.90625 C 39.425781 -25.59375 36.6875 -26.4375 33.5 -26.4375 L 13.875 -26.4375 L 13.875 -2.65625 C 13.875 -1.882812 13.640625 -1.25 13.171875 -0.75 C 12.703125 -0.25 12.082031 0 11.3125 0 C 10.488281 0 9.78125 -0.25 9.1875 -0.75 C 8.601562 -1.25 8.3125 -1.882812 8.3125 -2.65625 L 8.3125 -59.234375 C 8.3125 -59.992188 8.5625 -60.625 9.0625 -61.125 C 9.5625 -61.632812 10.195312 -61.890625 10.96875 -61.890625 L 34.828125 -61.890625 C 38.191406 -61.890625 41.195312 -61.164062 43.84375 -59.71875 C 46.5 -58.269531 48.578125 -56.28125 50.078125 -53.75 C 51.585938 -51.21875 52.34375 -48.359375 52.34375 -45.171875 C 52.34375 -41.398438 51.351562 -38.082031 49.375 -35.21875 C 47.394531 -32.363281 44.816406 -30.40625 41.640625 -29.34375 C 44.234375 -28.34375 46.351562 -26.648438 48 -24.265625 C 49.65625 -21.878906 50.507812 -18.976562 50.5625 -15.5625 C 50.625 -11.90625 50.875 -9.335938 51.3125 -7.859375 C 51.757812 -6.390625 52.484375 -5.363281 53.484375 -4.78125 Z M 35.09375 -31.296875 C 37.15625 -31.472656 39.070312 -32.148438 40.84375 -33.328125 C 42.613281 -34.503906 44.023438 -36.09375 45.078125 -38.09375 C 46.140625 -40.101562 46.671875 -42.40625 46.671875 -45 C 46.671875 -48.351562 45.535156 -51.132812 43.265625 -53.34375 C 41.003906 -55.5625 38.046875 -56.671875 34.390625 -56.671875 L 13.875 -56.671875 L 13.875 -31.296875 Z M 35.09375 -31.296875 "/></g></g></g><g fill="#292929" fill-opacity="1"><g transform="translate(894.523126, 86.35218)"><g><path d="M 25.015625 0.890625 C 20.773438 0.890625 17.019531 0.179688 13.75 -1.234375 C 10.476562 -2.648438 7.3125 -4.863281 4.25 -7.875 C 3.539062 -8.457031 3.1875 -9.160156 3.1875 -9.984375 C 3.1875 -10.691406 3.460938 -11.335938 4.015625 -11.921875 C 4.578125 -12.515625 5.210938 -12.8125 5.921875 -12.8125 C 6.628906 -12.8125 7.28125 -12.519531 7.875 -11.9375 C 12.46875 -6.863281 18.210938 -4.328125 25.109375 -4.328125 C 29.347656 -4.328125 32.867188 -5.328125 35.671875 -7.328125 C 38.472656 -9.335938 39.875 -11.960938 39.875 -15.203125 C 39.875 -17.734375 39.179688 -19.835938 37.796875 -21.515625 C 36.410156 -23.203125 34.597656 -24.578125 32.359375 -25.640625 C 30.117188 -26.703125 27.257812 -27.789062 23.78125 -28.90625 C 20.007812 -30.03125 16.84375 -31.269531 14.28125 -32.625 C 11.71875 -33.976562 9.640625 -35.789062 8.046875 -38.0625 C 6.453125 -40.332031 5.65625 -43.203125 5.65625 -46.671875 C 5.65625 -49.796875 6.492188 -52.566406 8.171875 -54.984375 C 9.859375 -57.398438 12.21875 -59.300781 15.25 -60.6875 C 18.28125 -62.070312 21.769531 -62.765625 25.71875 -62.765625 C 29.320312 -62.765625 32.695312 -62.160156 35.84375 -60.953125 C 39 -59.742188 41.519531 -58.019531 43.40625 -55.78125 C 44.289062 -54.78125 44.734375 -53.925781 44.734375 -53.21875 C 44.734375 -52.570312 44.4375 -51.96875 43.84375 -51.40625 C 43.257812 -50.84375 42.613281 -50.5625 41.90625 -50.5625 C 41.3125 -50.5625 40.8125 -50.769531 40.40625 -51.1875 C 38.8125 -53.070312 36.6875 -54.601562 34.03125 -55.78125 C 31.382812 -56.957031 28.613281 -57.546875 25.71875 -57.546875 C 21.414062 -57.546875 17.910156 -56.585938 15.203125 -54.671875 C 12.492188 -52.765625 11.140625 -50.160156 11.140625 -46.859375 C 11.140625 -43.441406 12.4375 -40.816406 15.03125 -38.984375 C 17.625 -37.160156 21.335938 -35.484375 26.171875 -33.953125 C 30.347656 -32.710938 33.765625 -31.441406 36.421875 -30.140625 C 39.078125 -28.847656 41.242188 -27.007812 42.921875 -24.625 C 44.597656 -22.238281 45.4375 -19.097656 45.4375 -15.203125 C 45.4375 -12.203125 44.566406 -9.476562 42.828125 -7.03125 C 41.085938 -4.582031 38.671875 -2.648438 35.578125 -1.234375 C 32.484375 0.179688 28.960938 0.890625 25.015625 0.890625 Z M 25.015625 0.890625 "/></g></g></g></g></g></svg>