<?xml version="1.0" encoding="UTF-8" standalone="no"?>
<svg
   viewBox="0 0 640 640"
   version="1.1"
   id="svg1"
   sodipodi:docname="paintbrush.svg"
   inkscape:version="1.4 (e7c3feb1, 2024-10-09)"
   xmlns:inkscape="http://www.inkscape.org/namespaces/inkscape"
   xmlns:sodipodi="http://sodipodi.sourceforge.net/DTD/sodipodi-0.dtd"
   xmlns="http://www.w3.org/2000/svg"
   xmlns:svg="http://www.w3.org/2000/svg">
  <defs
     id="defs1" />
  <sodipodi:namedview
     id="namedview1"
     pagecolor="#ffffff"
     bordercolor="#000000"
     borderopacity="0.25"
     inkscape:showpageshadow="2"
     inkscape:pageopacity="0.0"
     inkscape:pagecheckerboard="0"
     inkscape:deskcolor="#d1d1d1"
     inkscape:zoom="0.23191012"
     inkscape:cx="297.52906"
     inkscape:cy="433.35754"
     inkscape:window-width="1472"
     inkscape:window-height="920"
     inkscape:window-x="0"
     inkscape:window-y="36"
     inkscape:window-maximized="0"
     inkscape:current-layer="svg1" />
  <!--!Font Awesome Free 7.2.0 by @fontawesome - https://fontawesome.com License - https://fontawesome.com/license/free Copyright 2026 Fonticons, Inc.-->
  <path
     d="M512.5 74.3L291.1 222C262 241.4 243.5 272.9 240.5 307.3C302.8 320.1 351.9 369.2 364.8 431.6C399.3 428.6 430.7 410.1 450.1 381L597.7 159.5C604.4 149.4 608 137.6 608 125.4C608 91.5 580.5 64 546.6 64C534.5 64 522.6 67.6 512.5 74.3zM320 464C320 402.1 269.9 352 208 352C146.1 352 96 402.1 96 464C96 467.9 96.2 471.8 96.6 475.6C98.4 493.1 86.4 512 68.8 512L64 512C46.3 512 32 526.3 32 544C32 561.7 46.3 576 64 576L208 576C269.9 576 320 525.9 320 464z"
     id="path1"
     style="fill:#2f5d50;fill-opacity:1" />
</svg>
